PathFileType	3	(X/Y/Z)	feet_movements_1__view2_aligned.trc
DataRate	CameraRate	NumFrames	NumMarkers	Units	OrigDataRate	OrigDataStartFrame	OrigNumFrames
100.0	100.0	7	19	mm	100.0	1562	1840
Frame#	Time	pelvis			neck			head			hip_left			hip_right			knee_left			knee_right			ankle_left			ankle_right			heel_left			heel_right			toe_left			toe_right			shoulder_left			shoulder_right			elbow_left			elbow_right			wrist_left			wrist_right			
		X1	Y1	Z1	X2	Y2	Z2	X3	Y3	Z3	X4	Y4	Z4	X5	Y5	Z5	X6	Y6	Z6	X7	Y7	Z7	X8	Y8	Z8	X9	Y9	Z9	X10	Y10	Z10	X11	Y11	Z11	X12	Y12	Z12	X13	Y13	Z13	X14	Y14	Z14	X15	Y15	Z15	X16	Y16	Z16	X17	Y17	Z17	X18	Y18	Z18	X19	Y19	Z19	
1562	15.61000	110.870032	952.508961	494.032701	201.354604	1472.007032	540.601156	204.497861	1570.470363	415.291190	42.834120	973.622794	480.582487	178.905944	931.395128	507.482914	49.361625	1143.126698	92.662826	182.794822	524.184177	396.252534	69.713827	743.533100	66.178439	123.729474	130.415107	457.673618	68.688600	708.185543	107.015112	110.651711	84.490746	493.273058	100.436502	604.943842	-77.708906	161.320245	56.006598	285.799863	24.348481	1445.894446	536.453927	366.689406	1417.932755	596.000682	-139.219387	1245.589155	437.928918	511.713661	1192.491059	588.925804	-278.113869	1133.600546	279.071497	548.296874	1085.930700	385.945013
1563	15.62000	110.301079	952.375251	493.844469	200.774267	1471.757686	540.661432	203.902906	1570.187100	415.279567	42.301191	973.464858	480.283938	178.300920	931.285646	507.404996	49.345083	1142.063069	91.815819	182.169470	524.128295	396.057263	69.457521	742.495300	64.432211	122.902180	130.509840	457.428681	68.377490	707.143703	105.268279	109.760581	84.589868	493.008069	100.402655	603.660715	-79.414032	160.778700	56.160863	285.623972	23.726103	1445.686683	536.338761	366.096737	1417.591913	596.244097	-140.249127	1245.623813	437.540082	511.010329	1192.008286	589.176103	-279.484126	1133.513438	278.718936	546.975474	1085.475585	385.684658
1564	15.63000	109.732126	952.241540	493.656238	200.193930	1471.508339	540.721707	203.307952	1569.903837	415.267943	41.768262	973.306923	479.985389	177.695895	931.176165	507.327077	49.328540	1140.999440	90.968811	181.544117	524.072413	395.861993	69.201214	741.457501	62.685984	122.074886	130.604573	457.183745	68.066379	706.101863	103.521447	108.869451	84.688989	492.743079	100.368807	602.377589	-81.119157	160.237154	56.315128	285.448081	23.103725	1445.478920	536.223594	365.504069	1417.251072	596.487512	-141.278867	1245.658471	437.151247	510.306996	1191.525513	589.426402	-280.854382	1133.426330	278.366374	545.654074	1085.020470	385.424303
1565	15.64000	109.163173	952.107830	493.468007	199.613594	1471.258992	540.781982	202.712998	1569.620575	415.256320	41.235333	973.148988	479.686840	177.090871	931.066683	507.249159	49.311998	1139.935810	90.121804	180.918764	524.016531	395.666723	68.944908	740.419702	60.939757	121.247592	130.699306	456.938808	67.755269	705.060023	101.774615	107.978321	84.788111	492.478089	100.334959	601.094463	-82.824283	159.695609	56.469393	285.272190	22.481347	1445.271156	536.108428	364.911400	1416.910230	596.730927	-142.308607	1245.693129	436.762411	509.603664	1191.042741	589.676701	-282.224639	1133.339222	278.013812	544.332674	1084.565354	385.163948
1566	15.65000	108.594220	951.974120	493.279776	199.033257	1471.009645	540.842257	202.118044	1569.337312	415.244697	40.702404	972.991053	479.388291	176.485847	930.957202	507.171240	49.295456	1138.872181	89.274797	180.293412	523.960649	395.471452	68.688602	739.381902	59.193529	120.420298	130.794039	456.693871	67.444159	704.018183	100.027783	107.087191	84.887233	492.213099	100.301112	599.811337	-84.529408	159.154063	56.623658	285.096299	21.858969	1445.063393	535.993262	364.318732	1416.569388	596.974342	-143.338347	1245.727787	436.373576	508.900331	1190.559968	589.926999	-283.594896	1133.252114	277.661250	543.011274	1084.110239	384.903592
1567	15.66000	108.025267	951.840410	493.091544	198.452920	1470.760298	540.902532	201.523089	1569.054049	415.233074	40.169475	972.833117	479.089741	175.880823	930.847720	507.093322	49.278913	1137.808551	88.427789	179.668059	523.904767	395.276182	68.432295	738.344103	57.447302	119.593004	130.888771	456.448935	67.133048	702.976344	98.280950	106.196061	84.986355	491.948109	100.267264	598.528211	-86.234534	158.612518	56.777923	284.920408	21.236591	1444.855630	535.878096	363.726063	1416.228546	597.217758	-144.368087	1245.762445	435.984740	508.196999	1190.077196	590.177298	-284.965152	1133.165007	277.308688	541.689874	1083.655123	384.643237
1568	15.67000	107.456314	951.706700	492.903313	197.872583	1470.510951	540.962807	200.928135	1568.770786	415.221450	39.636546	972.675182	478.791192	175.275799	930.738239	507.015404	49.262371	1136.744922	87.580782	179.042707	523.848885	395.080911	68.175989	737.306304	55.701075	118.765710	130.983504	456.203998	66.821938	701.934504	96.534118	105.304931	85.085477	491.683119	100.233416	597.245085	-87.939659	158.070973	56.932188	284.744517	20.614213	1444.647866	535.762929	363.133395	1415.887705	597.461173	-145.397828	1245.797102	435.595905	507.493666	1189.594423	590.427597	-286.335409	1133.077899	276.956126	540.368473	1083.200008	384.382882
